<svg width="313" height="36" viewBox="0 0 313 36" fill="none" xmlns="http://www.w3.org/2000/svg">
<path d="M25.736 3.32V22.808C25.736 26.808 24.584 29.928 22.28 32.168C19.976 34.376 16.712 35.48 12.488 35.48C9.384 35.48 6.888 34.936 5 33.848C3.112 32.728 1.816 31.192 1.112 29.24C0.408 27.256 0.264 25 0.68 22.472L8.744 21.032C8.36 23.944 8.488 26.008 9.128 27.224C9.8 28.408 11.016 29 12.776 29C14.504 29 15.72 28.424 16.424 27.272C17.128 26.12 17.48 24.344 17.48 21.944V3.32H25.736ZM44.5599 2.84C47.5039 2.84 50.0959 3.304 52.3359 4.232C54.6079 5.128 56.5759 6.456 58.2399 8.216L54.2559 13.544C52.8799 12.104 51.3919 11.032 49.7919 10.328C48.2239 9.592 46.4319 9.224 44.4159 9.224C43.2319 9.224 42.2719 9.352 41.5359 9.608C40.7999 9.864 40.2719 10.216 39.9519 10.664C39.6319 11.112 39.4719 11.624 39.4719 12.2C39.4719 12.872 39.7759 13.448 40.3839 13.928C41.0239 14.376 42.0479 14.76 43.4559 15.08L48.7839 16.28C51.9519 17.016 54.2719 18.088 55.7439 19.496C57.2159 20.904 57.9519 22.776 57.9519 25.112C57.9519 27.352 57.3759 29.256 56.2239 30.824C55.0719 32.36 53.4879 33.528 51.4719 34.328C49.4559 35.096 47.1519 35.48 44.5599 35.48C42.4479 35.48 40.4319 35.256 38.5119 34.808C36.5919 34.328 34.8639 33.656 33.3279 32.792C31.7919 31.928 30.4959 30.936 29.4399 29.816L33.4239 24.296C34.2239 25.224 35.1999 26.056 36.3519 26.792C37.5359 27.496 38.8159 28.056 40.1919 28.472C41.5999 28.888 43.0239 29.096 44.4639 29.096C45.5839 29.096 46.5119 28.984 47.2479 28.76C48.0159 28.536 48.5759 28.2 48.9279 27.752C49.2799 27.304 49.4559 26.776 49.4559 26.168C49.4559 25.496 49.2159 24.936 48.7359 24.488C48.2559 24.008 47.3439 23.608 45.9999 23.288L40.1439 21.992C38.3519 21.576 36.7519 21.032 35.3439 20.36C33.9679 19.656 32.8799 18.728 32.0799 17.576C31.2799 16.392 30.8799 14.92 30.8799 13.16C30.8799 11.176 31.4239 9.416 32.5119 7.88C33.5999 6.312 35.1679 5.08 37.2159 4.184C39.2639 3.288 41.7119 2.84 44.5599 2.84Z" fill="black"/>
<path d="M76.8478 35V3.32H92.2558C96.1598 3.352 99.0398 4.104 100.896 5.576C102.752 7.016 103.68 9.112 103.68 11.864C103.68 13.656 103.152 15.208 102.096 16.52C101.04 17.8 99.4238 18.616 97.2478 18.968V19.016C99.6798 19.336 101.488 20.184 102.672 21.56C103.888 22.904 104.496 24.536 104.496 26.456C104.496 29.176 103.536 31.288 101.616 32.792C99.6958 34.264 96.8158 35 92.9758 35H76.8478ZM84.8158 29.192H91.5838C93.0878 29.192 94.2078 28.888 94.9438 28.28C95.6798 27.672 96.0478 26.792 96.0478 25.64C96.0478 24.52 95.6798 23.672 94.9438 23.096C94.2078 22.488 93.0878 22.184 91.5838 22.184H84.8158V29.192ZM84.8158 16.28H90.8158C93.7598 16.28 95.2318 15.128 95.2318 12.824C95.2318 10.52 93.7598 9.368 90.8158 9.368H84.8158V16.28ZM120.508 10.52C123.036 10.52 125.244 11.016 127.132 12.008C129.052 12.968 130.54 14.392 131.596 16.28C132.684 18.136 133.228 20.376 133.228 23C133.228 25.624 132.684 27.88 131.596 29.768C130.54 31.624 129.052 33.048 127.132 34.04C125.244 35 123.036 35.48 120.508 35.48C118.044 35.48 115.852 35 113.932 34.04C112.012 33.048 110.508 31.624 109.42 29.768C108.364 27.88 107.836 25.624 107.836 23C107.836 20.376 108.364 18.136 109.42 16.28C110.508 14.392 112.012 12.968 113.932 12.008C115.852 11.016 118.044 10.52 120.508 10.52ZM120.508 16.328C119.58 16.328 118.78 16.552 118.108 17C117.436 17.448 116.924 18.168 116.572 19.16C116.22 20.152 116.044 21.432 116.044 23C116.044 24.568 116.22 25.848 116.572 26.84C116.924 27.8 117.436 28.52 118.108 29C118.78 29.448 119.58 29.672 120.508 29.672C121.468 29.672 122.284 29.448 122.956 29C123.628 28.52 124.14 27.8 124.492 26.84C124.844 25.848 125.02 24.568 125.02 23C125.02 21.432 124.844 20.152 124.492 19.16C124.14 18.168 123.628 17.448 122.956 17C122.284 16.552 121.468 16.328 120.508 16.328ZM149.243 10.52C151.771 10.52 153.979 11.016 155.867 12.008C157.787 12.968 159.275 14.392 160.331 16.28C161.419 18.136 161.963 20.376 161.963 23C161.963 25.624 161.419 27.88 160.331 29.768C159.275 31.624 157.787 33.048 155.867 34.04C153.979 35 151.771 35.48 149.243 35.48C146.779 35.48 144.587 35 142.667 34.04C140.747 33.048 139.243 31.624 138.155 29.768C137.099 27.88 136.571 25.624 136.571 23C136.571 20.376 137.099 18.136 138.155 16.28C139.243 14.392 140.747 12.968 142.667 12.008C144.587 11.016 146.779 10.52 149.243 10.52ZM149.243 16.328C148.315 16.328 147.515 16.552 146.843 17C146.171 17.448 145.659 18.168 145.307 19.16C144.955 20.152 144.779 21.432 144.779 23C144.779 24.568 144.955 25.848 145.307 26.84C145.659 27.8 146.171 28.52 146.843 29C147.515 29.448 148.315 29.672 149.243 29.672C150.203 29.672 151.019 29.448 151.691 29C152.363 28.52 152.875 27.8 153.227 26.84C153.579 25.848 153.755 24.568 153.755 23C153.755 21.432 153.579 20.152 153.227 19.16C152.875 18.168 152.363 17.448 151.691 17C151.019 16.552 150.203 16.328 149.243 16.328ZM192.905 11L181.385 23.288L179.849 23.72L172.985 31.4L172.937 23.048L183.833 11H192.905ZM174.713 0.823999V35H166.553V0.823999H174.713ZM182.633 18.2L193.433 35H184.409L177.305 23L182.633 18.2ZM238.053 25.928C237.445 28.136 236.469 29.96 235.125 31.4C233.781 32.808 232.181 33.848 230.325 34.52C228.469 35.16 226.421 35.48 224.181 35.48C220.981 35.48 218.213 34.84 215.877 33.56C213.541 32.248 211.749 30.376 210.501 27.944C209.253 25.512 208.629 22.584 208.629 19.16C208.629 15.736 209.253 12.808 210.501 10.376C211.749 7.944 213.541 6.088 215.877 4.808C218.213 3.496 220.965 2.84 224.133 2.84C226.341 2.84 228.373 3.16 230.229 3.8C232.085 4.408 233.653 5.352 234.933 6.632C236.213 7.912 237.125 9.56 237.669 11.576L230.421 14.504C229.973 12.52 229.237 11.16 228.213 10.424C227.221 9.688 225.957 9.32 224.421 9.32C222.917 9.32 221.605 9.688 220.485 10.424C219.397 11.16 218.549 12.264 217.941 13.736C217.365 15.176 217.077 16.984 217.077 19.16C217.077 21.304 217.349 23.112 217.893 24.584C218.437 26.056 219.253 27.16 220.341 27.896C221.461 28.632 222.837 29 224.469 29C226.005 29 227.301 28.584 228.357 27.752C229.445 26.888 230.181 25.576 230.565 23.816L238.053 25.928ZM250.133 0.823999V26.84C250.133 27.896 250.309 28.648 250.661 29.096C251.013 29.544 251.605 29.768 252.437 29.768C252.917 29.768 253.317 29.736 253.637 29.672C253.957 29.608 254.341 29.512 254.789 29.384L254.261 34.28C253.685 34.632 252.933 34.92 252.005 35.144C251.077 35.368 250.165 35.48 249.269 35.48C246.709 35.48 244.853 34.888 243.701 33.704C242.549 32.52 241.973 30.584 241.973 27.896V0.823999H250.133ZM265.884 35.48C264.252 35.48 262.812 35.208 261.564 34.664C260.348 34.088 259.388 33.176 258.684 31.928C257.98 30.68 257.628 29.048 257.628 27.032V11H265.788V25.112C265.788 26.648 266.092 27.72 266.7 28.328C267.308 28.936 268.172 29.24 269.292 29.24C269.868 29.24 270.412 29.144 270.924 28.952C271.436 28.728 271.884 28.408 272.268 27.992C272.652 27.544 272.94 26.984 273.132 26.312C273.356 25.608 273.468 24.792 273.468 23.864V11H281.628V35H274.332L274.092 30.488C273.324 32.184 272.252 33.448 270.876 34.28C269.5 35.08 267.836 35.48 265.884 35.48ZM302.899 35.48C301.331 35.48 299.939 35.128 298.723 34.424C297.539 33.72 296.563 32.76 295.795 31.544C295.027 30.296 294.531 28.888 294.307 27.32L295.075 26.312L294.643 35H287.491V0.823999H295.651V18.536L294.883 17.384C295.331 15.4 296.243 13.768 297.619 12.488C298.995 11.176 300.851 10.52 303.187 10.52C305.043 10.52 306.691 11.016 308.131 12.008C309.603 13 310.739 14.44 311.539 16.328C312.371 18.184 312.786 20.44 312.786 23.096C312.786 25.688 312.371 27.912 311.539 29.768C310.707 31.624 309.555 33.048 308.083 34.04C306.611 35 304.883 35.48 302.899 35.48ZM300.067 29.48C301.475 29.48 302.579 28.968 303.379 27.944C304.179 26.888 304.579 25.24 304.579 23C304.579 20.76 304.179 19.128 303.379 18.104C302.579 17.048 301.475 16.52 300.067 16.52C299.139 16.52 298.339 16.792 297.667 17.336C297.027 17.848 296.531 18.584 296.179 19.544C295.827 20.504 295.651 21.672 295.651 23.048C295.651 24.424 295.827 25.592 296.179 26.552C296.531 27.512 297.043 28.248 297.715 28.76C298.387 29.24 299.171 29.48 300.067 29.48Z" fill="black" fill-opacity="0.49"/>
</svg>
